{
    "asset" : {
        "generator" : "Khronos glTF Blender I/O v1.5.17",
        "version" : "2.0"
    },
    "scene" : 0,
    "scenes" : [
        {
            "name" : "Scene",
            "nodes" : [
                3
            ]
        }
    ],
    "nodes" : [
        {
            "mesh" : 0,
            "name" : "Cube",
            "rotation" : [
                0,
                -0.7071068286895752,
                0,
                0.7071068286895752
            ],
            "scale" : [
                0.1829608678817749,
                0.1829608678817749,
                0.1829608678817749
            ],
            "translation" : [
                -1.0712130069732666,
                -0.03642183542251587,
                -0.41331732273101807
            ]
        },
        {
            "mesh" : 1,
            "name" : "Canon"
        },
        {
            "children" : [
                1
            ],
            "mesh" : 2,
            "name" : "PlayerColor",
            "rotation" : [
                0,
                -0.7071068286895752,
                0,
                0.7071068286895752
            ],
            "scale" : [
                0.16466477513313293,
                0.16466477513313293,
                0.16466477513313293
            ],
            "translation" : [
                -1.0712130069732666,
                -0.046136438846588135,
                -0.41331732273101807
            ]
        },
        {
            "children" : [
                0,
                2
            ],
            "name" : "Worker",
            "translation" : [
                1.0712130069732666,
                0.3294885456562042,
                0.41331732273101807
            ]
        }
    ],
    "materials" : [
        {
            "doubleSided" : true,
            "name" : "Material",
            "pbrMetallicRoughness" : {
                "baseColorFactor" : [
                    0.800000011920929,
                    0.800000011920929,
                    0.800000011920929,
                    1
                ],
                "metallicFactor" : 0,
                "roughnessFactor" : 0.4000000059604645
            }
        }
    ],
    "meshes" : [
        {
            "name" : "Cube",
            "primitives" : [
                {
                    "attributes" : {
                        "POSITION" : 0,
                        "NORMAL" : 1,
                        "TEXCOORD_0" : 2,
                        "COLOR_0" : 3
                    },
                    "indices" : 4,
                    "material" : 0
                }
            ]
        },
        {
            "name" : "Cylinder.002",
            "primitives" : [
                {
                    "attributes" : {
                        "POSITION" : 5,
                        "NORMAL" : 6,
                        "TEXCOORD_0" : 7,
                        "COLOR_0" : 8
                    },
                    "indices" : 9,
                    "material" : 0
                }
            ]
        },
        {
            "name" : "Cylinder.001",
            "primitives" : [
                {
                    "attributes" : {
                        "POSITION" : 10,
                        "NORMAL" : 11,
                        "TEXCOORD_0" : 12,
                        "COLOR_0" : 13
                    },
                    "indices" : 14,
                    "material" : 0
                }
            ]
        }
    ],
    "accessors" : [
        {
            "bufferView" : 0,
            "componentType" : 5126,
            "count" : 594,
            "max" : [
                1.808158278465271,
                -0.4000000059604645,
                1
            ],
            "min" : [
                -1,
                -1,
                -1
            ],
            "type" : "VEC3"
        },
        {
            "bufferView" : 1,
            "componentType" : 5126,
            "count" : 594,
            "type" : "VEC3"
        },
        {
            "bufferView" : 2,
            "componentType" : 5126,
            "count" : 594,
            "type" : "VEC2"
        },
        {
            "bufferView" : 3,
            "componentType" : 5123,
            "count" : 594,
            "normalized" : true,
            "type" : "VEC4"
        },
        {
            "bufferView" : 4,
            "componentType" : 5123,
            "count" : 1062,
            "type" : "SCALAR"
        },
        {
            "bufferView" : 5,
            "componentType" : 5126,
            "count" : 152,
            "max" : [
                1.7894413471221924,
                0.6332788467407227,
                0.27417078614234924
            ],
            "min" : [
                0.9447956085205078,
                0.09999990463256836,
                -0.274170845746994
            ],
            "type" : "VEC3"
        },
        {
            "bufferView" : 6,
            "componentType" : 5126,
            "count" : 152,
            "type" : "VEC3"
        },
        {
            "bufferView" : 7,
            "componentType" : 5126,
            "count" : 152,
            "type" : "VEC2"
        },
        {
            "bufferView" : 8,
            "componentType" : 5123,
            "count" : 152,
            "normalized" : true,
            "type" : "VEC4"
        },
        {
            "bufferView" : 9,
            "componentType" : 5123,
            "count" : 264,
            "type" : "SCALAR"
        },
        {
            "bufferView" : 10,
            "componentType" : 5126,
            "count" : 832,
            "max" : [
                1,
                0.9999999403953552,
                1.0000001192092896
            ],
            "min" : [
                -1,
                -0.34690266847610474,
                -1
            ],
            "type" : "VEC3"
        },
        {
            "bufferView" : 11,
            "componentType" : 5126,
            "count" : 832,
            "type" : "VEC3"
        },
        {
            "bufferView" : 12,
            "componentType" : 5126,
            "count" : 832,
            "type" : "VEC2"
        },
        {
            "bufferView" : 13,
            "componentType" : 5123,
            "count" : 832,
            "normalized" : true,
            "type" : "VEC4"
        },
        {
            "bufferView" : 14,
            "componentType" : 5123,
            "count" : 1332,
            "type" : "SCALAR"
        }
    ],
    "bufferViews" : [
        {
            "buffer" : 0,
            "byteLength" : 7128,
            "byteOffset" : 0
        },
        {
            "buffer" : 0,
            "byteLength" : 7128,
            "byteOffset" : 7128
        },
        {
            "buffer" : 0,
            "byteLength" : 4752,
            "byteOffset" : 14256
        },
        {
            "buffer" : 0,
            "byteLength" : 4752,
            "byteOffset" : 19008
        },
        {
            "buffer" : 0,
            "byteLength" : 2124,
            "byteOffset" : 23760
        },
        {
            "buffer" : 0,
            "byteLength" : 1824,
            "byteOffset" : 25884
        },
        {
            "buffer" : 0,
            "byteLength" : 1824,
            "byteOffset" : 27708
        },
        {
            "buffer" : 0,
            "byteLength" : 1216,
            "byteOffset" : 29532
        },
        {
            "buffer" : 0,
            "byteLength" : 1216,
            "byteOffset" : 30748
        },
        {
            "buffer" : 0,
            "byteLength" : 528,
            "byteOffset" : 31964
        },
        {
            "buffer" : 0,
            "byteLength" : 9984,
            "byteOffset" : 32492
        },
        {
            "buffer" : 0,
            "byteLength" : 9984,
            "byteOffset" : 42476
        },
        {
            "buffer" : 0,
            "byteLength" : 6656,
            "byteOffset" : 52460
        },
        {
            "buffer" : 0,
            "byteLength" : 6656,
            "byteOffset" : 59116
        },
        {
            "buffer" : 0,
            "byteLength" : 2664,
            "byteOffset" : 65772
        }
    ],
    "buffers" : [
        {
            "byteLength" : 68436,
            "uri" : "Worker_v1.bin"
        }
    ]
}
