{
    "asset" : {
        "generator" : "Khronos glTF Blender I/O v1.5.17",
        "version" : "2.0"
    },
    "scene" : 0,
    "scenes" : [
        {
            "name" : "Scene",
            "nodes" : [
                0
            ]
        }
    ],
    "nodes" : [
        {
            "mesh" : 0,
            "name" : "Tree_05",
            "scale" : [
                0.6499999761581421,
                0.6499999761581421,
                0.6499999761581421
            ],
            "translation" : [
                0,
                2.799999952316284,
                0
            ]
        }
    ],
    "meshes" : [
        {
            "name" : "DarkGreenTree_mergedObject.001",
            "primitives" : [
                {
                    "attributes" : {
                        "POSITION" : 0,
                        "NORMAL" : 1,
                        "COLOR_0" : 2
                    },
                    "indices" : 3
                }
            ]
        }
    ],
    "accessors" : [
        {
            "bufferView" : 0,
            "componentType" : 5126,
            "count" : 2482,
            "max" : [
                2.640045404434204,
                2.1759562492370605,
                3.414144515991211
            ],
            "min" : [
                -2.7950074672698975,
                -4.3446245193481445,
                -2.5799598693847656
            ],
            "type" : "VEC3"
        },
        {
            "bufferView" : 1,
            "componentType" : 5126,
            "count" : 2482,
            "type" : "VEC3"
        },
        {
            "bufferView" : 2,
            "componentType" : 5123,
            "count" : 2482,
            "normalized" : true,
            "type" : "VEC4"
        },
        {
            "bufferView" : 3,
            "componentType" : 5123,
            "count" : 3726,
            "type" : "SCALAR"
        }
    ],
    "bufferViews" : [
        {
            "buffer" : 0,
            "byteLength" : 29784,
            "byteOffset" : 0
        },
        {
            "buffer" : 0,
            "byteLength" : 29784,
            "byteOffset" : 29784
        },
        {
            "buffer" : 0,
            "byteLength" : 19856,
            "byteOffset" : 59568
        },
        {
            "buffer" : 0,
            "byteLength" : 7452,
            "byteOffset" : 79424
        }
    ],
    "buffers" : [
        {
            "byteLength" : 86876,
            "uri" : "tree_05_v1.bin"
        }
    ]
}
