{
    "asset" : {
        "generator" : "Khronos glTF Blender I/O v1.5.17",
        "version" : "2.0"
    },
    "scene" : 0,
    "scenes" : [
        {
            "name" : "Scene",
            "nodes" : [
                0
            ]
        }
    ],
    "nodes" : [
        {
            "mesh" : 0,
            "name" : "Tree_01",
            "scale" : [
                0.44173696637153625,
                0.4391171336174011,
                0.37171390652656555
            ],
            "translation" : [
                -0.03999999910593033,
                2.5999999046325684,
                -0.059999994933605194
            ]
        }
    ],
    "meshes" : [
        {
            "name" : "Plane.002",
            "primitives" : [
                {
                    "attributes" : {
                        "POSITION" : 0,
                        "NORMAL" : 1,
                        "COLOR_0" : 2
                    },
                    "indices" : 3
                }
            ]
        }
    ],
    "accessors" : [
        {
            "bufferView" : 0,
            "componentType" : 5126,
            "count" : 1156,
            "max" : [
                2.455819606781006,
                2.4965600967407227,
                2.685385227203369
            ],
            "min" : [
                -2.6431455612182617,
                -5.934300899505615,
                -2.5088071823120117
            ],
            "type" : "VEC3"
        },
        {
            "bufferView" : 1,
            "componentType" : 5126,
            "count" : 1156,
            "type" : "VEC3"
        },
        {
            "bufferView" : 2,
            "componentType" : 5123,
            "count" : 1156,
            "normalized" : true,
            "type" : "VEC4"
        },
        {
            "bufferView" : 3,
            "componentType" : 5123,
            "count" : 2070,
            "type" : "SCALAR"
        }
    ],
    "bufferViews" : [
        {
            "buffer" : 0,
            "byteLength" : 13872,
            "byteOffset" : 0
        },
        {
            "buffer" : 0,
            "byteLength" : 13872,
            "byteOffset" : 13872
        },
        {
            "buffer" : 0,
            "byteLength" : 9248,
            "byteOffset" : 27744
        },
        {
            "buffer" : 0,
            "byteLength" : 4140,
            "byteOffset" : 36992
        }
    ],
    "buffers" : [
        {
            "byteLength" : 41132,
            "uri" : "tree_01_v3.bin"
        }
    ]
}
