{
    "asset" : {
        "generator" : "Khronos glTF Blender I/O v1.5.17",
        "version" : "2.0"
    },
    "scene" : 0,
    "scenes" : [
        {
            "name" : "Scene",
            "nodes" : [
                5
            ]
        }
    ],
    "nodes" : [
        {
            "mesh" : 0,
            "name" : "Arms",
            "scale" : [
                0.0009999871253967285,
                0.0009999871253967285,
                0.0009999871253967285
            ]
        },
        {
            "mesh" : 1,
            "name" : "Cannon",
            "scale" : [
                0.0009999871253967285,
                0.0009999871253967285,
                0.0009999871253967285
            ]
        },
        {
            "mesh" : 2,
            "name" : "Head",
            "scale" : [
                0.0009999871253967285,
                0.0009999871253967285,
                0.0009999871253967285
            ]
        },
        {
            "mesh" : 3,
            "name" : "Lower body",
            "scale" : [
                0.0009999871253967285,
                0.0009999871253967285,
                0.0009999871253967285
            ]
        },
        {
            "mesh" : 4,
            "name" : "PlayerColor",
            "scale" : [
                0.0009999871253967285,
                0.0009999871253967285,
                0.0009999871253967285
            ]
        },
        {
            "children" : [
                0,
                1,
                2,
                3,
                4
            ],
            "name" : "Worker",
            "rotation" : [
                0,
                -0.7071068286895752,
                0,
                0.7071068286895752
            ],
            "scale" : [
                0.625,
                0.625,
                0.625
            ],
            "translation" : [
                -0.14999999105930328,
                0,
                -0.14999999105930328
            ]
        }
    ],
    "materials" : [
        {
            "doubleSided" : true,
            "name" : "Material.001",
            "pbrMetallicRoughness" : {
                "baseColorFactor" : [
                    0.800000011920929,
                    0.800000011920929,
                    0.800000011920929,
                    1
                ],
                "metallicFactor" : 0
            }
        }
    ],
    "meshes" : [
        {
            "name" : "Worker V1.002",
            "primitives" : [
                {
                    "attributes" : {
                        "POSITION" : 0,
                        "NORMAL" : 1,
                        "COLOR_0" : 2
                    },
                    "indices" : 3,
                    "material" : 0
                }
            ]
        },
        {
            "name" : "Worker V1.003",
            "primitives" : [
                {
                    "attributes" : {
                        "POSITION" : 4,
                        "NORMAL" : 5,
                        "COLOR_0" : 6
                    },
                    "indices" : 7,
                    "material" : 0
                }
            ]
        },
        {
            "name" : "Worker V1.004",
            "primitives" : [
                {
                    "attributes" : {
                        "POSITION" : 8,
                        "NORMAL" : 9,
                        "COLOR_0" : 10
                    },
                    "indices" : 11,
                    "material" : 0
                }
            ]
        },
        {
            "name" : "Worker V1.001",
            "primitives" : [
                {
                    "attributes" : {
                        "POSITION" : 12,
                        "NORMAL" : 13,
                        "COLOR_0" : 14
                    },
                    "indices" : 15,
                    "material" : 0
                }
            ]
        },
        {
            "name" : "Worker V1",
            "primitives" : [
                {
                    "attributes" : {
                        "POSITION" : 16,
                        "NORMAL" : 17,
                        "COLOR_0" : 18
                    },
                    "indices" : 19,
                    "material" : 0
                }
            ]
        }
    ],
    "accessors" : [
        {
            "bufferView" : 0,
            "componentType" : 5126,
            "count" : 144,
            "max" : [
                700,
                200,
                50
            ],
            "min" : [
                250,
                50,
                -550
            ],
            "type" : "VEC3"
        },
        {
            "bufferView" : 1,
            "componentType" : 5126,
            "count" : 144,
            "type" : "VEC3"
        },
        {
            "bufferView" : 2,
            "componentType" : 5123,
            "count" : 144,
            "normalized" : true,
            "type" : "VEC4"
        },
        {
            "bufferView" : 3,
            "componentType" : 5123,
            "count" : 243,
            "type" : "SCALAR"
        },
        {
            "bufferView" : 4,
            "componentType" : 5126,
            "count" : 64,
            "max" : [
                700,
                470,
                -175
            ],
            "min" : [
                500,
                320,
                -325
            ],
            "type" : "VEC3"
        },
        {
            "bufferView" : 5,
            "componentType" : 5126,
            "count" : 64,
            "type" : "VEC3"
        },
        {
            "bufferView" : 6,
            "componentType" : 5123,
            "count" : 64,
            "normalized" : true,
            "type" : "VEC4"
        },
        {
            "bufferView" : 7,
            "componentType" : 5123,
            "count" : 120,
            "type" : "SCALAR"
        },
        {
            "bufferView" : 8,
            "componentType" : 5126,
            "count" : 56,
            "max" : [
                500,
                520,
                0
            ],
            "min" : [
                0,
                270,
                -500
            ],
            "type" : "VEC3"
        },
        {
            "bufferView" : 9,
            "componentType" : 5126,
            "count" : 56,
            "type" : "VEC3"
        },
        {
            "bufferView" : 10,
            "componentType" : 5123,
            "count" : 56,
            "normalized" : true,
            "type" : "VEC4"
        },
        {
            "bufferView" : 11,
            "componentType" : 5123,
            "count" : 84,
            "type" : "SCALAR"
        },
        {
            "bufferView" : 12,
            "componentType" : 5126,
            "count" : 24,
            "max" : [
                500,
                250,
                0
            ],
            "min" : [
                0,
                0,
                -500
            ],
            "type" : "VEC3"
        },
        {
            "bufferView" : 13,
            "componentType" : 5126,
            "count" : 24,
            "type" : "VEC3"
        },
        {
            "bufferView" : 14,
            "componentType" : 5123,
            "count" : 24,
            "normalized" : true,
            "type" : "VEC4"
        },
        {
            "bufferView" : 15,
            "componentType" : 5123,
            "count" : 36,
            "type" : "SCALAR"
        },
        {
            "bufferView" : 16,
            "componentType" : 5126,
            "count" : 124,
            "max" : [
                480,
                540,
                20
            ],
            "min" : [
                20,
                250,
                -520
            ],
            "type" : "VEC3"
        },
        {
            "bufferView" : 17,
            "componentType" : 5126,
            "count" : 124,
            "type" : "VEC3"
        },
        {
            "bufferView" : 18,
            "componentType" : 5123,
            "count" : 124,
            "normalized" : true,
            "type" : "VEC4"
        },
        {
            "bufferView" : 19,
            "componentType" : 5123,
            "count" : 216,
            "type" : "SCALAR"
        }
    ],
    "bufferViews" : [
        {
            "buffer" : 0,
            "byteLength" : 1728,
            "byteOffset" : 0
        },
        {
            "buffer" : 0,
            "byteLength" : 1728,
            "byteOffset" : 1728
        },
        {
            "buffer" : 0,
            "byteLength" : 1152,
            "byteOffset" : 3456
        },
        {
            "buffer" : 0,
            "byteLength" : 486,
            "byteOffset" : 4608
        },
        {
            "buffer" : 0,
            "byteLength" : 768,
            "byteOffset" : 5096
        },
        {
            "buffer" : 0,
            "byteLength" : 768,
            "byteOffset" : 5864
        },
        {
            "buffer" : 0,
            "byteLength" : 512,
            "byteOffset" : 6632
        },
        {
            "buffer" : 0,
            "byteLength" : 240,
            "byteOffset" : 7144
        },
        {
            "buffer" : 0,
            "byteLength" : 672,
            "byteOffset" : 7384
        },
        {
            "buffer" : 0,
            "byteLength" : 672,
            "byteOffset" : 8056
        },
        {
            "buffer" : 0,
            "byteLength" : 448,
            "byteOffset" : 8728
        },
        {
            "buffer" : 0,
            "byteLength" : 168,
            "byteOffset" : 9176
        },
        {
            "buffer" : 0,
            "byteLength" : 288,
            "byteOffset" : 9344
        },
        {
            "buffer" : 0,
            "byteLength" : 288,
            "byteOffset" : 9632
        },
        {
            "buffer" : 0,
            "byteLength" : 192,
            "byteOffset" : 9920
        },
        {
            "buffer" : 0,
            "byteLength" : 72,
            "byteOffset" : 10112
        },
        {
            "buffer" : 0,
            "byteLength" : 1488,
            "byteOffset" : 10184
        },
        {
            "buffer" : 0,
            "byteLength" : 1488,
            "byteOffset" : 11672
        },
        {
            "buffer" : 0,
            "byteLength" : 992,
            "byteOffset" : 13160
        },
        {
            "buffer" : 0,
            "byteLength" : 432,
            "byteOffset" : 14152
        }
    ],
    "buffers" : [
        {
            "byteLength" : 14584,
            "uri" : "Worker_v2.bin"
        }
    ]
}
