{
    "asset" : {
        "generator" : "Khronos glTF Blender I/O v1.6.16",
        "version" : "2.0"
    },
    "scene" : 0,
    "scenes" : [
        {
            "name" : "Scene",
            "nodes" : [
                5
            ]
        }
    ],
    "nodes" : [
        {
            "mesh" : 0,
            "name" : "Arms",
            "scale" : [
                0.0005999922868795693,
                0.0005999922868795693,
                0.0005999922868795693
            ],
            "translation" : [
                0.009279102087020874,
                -0.2500065565109253,
                0.005526125431060791
            ]
        },
        {
            "mesh" : 1,
            "name" : "Cannon",
            "scale" : [
                0.0005999922868795693,
                0.0005999922868795693,
                0.0005999922868795693
            ],
            "translation" : [
                0.009279102087020874,
                -0.2500065565109253,
                0.005526125431060791
            ]
        },
        {
            "mesh" : 2,
            "name" : "Head",
            "scale" : [
                0.0005999922868795693,
                0.0005999922868795693,
                0.0005999922868795693
            ],
            "translation" : [
                0.009279102087020874,
                -0.2500065565109253,
                0.005526125431060791
            ]
        },
        {
            "mesh" : 3,
            "name" : "Lower body",
            "scale" : [
                0.0005999922868795693,
                0.0005999922868795693,
                0.0005999922868795693
            ],
            "translation" : [
                0.009279102087020874,
                -0.2500065565109253,
                0.005526125431060791
            ]
        },
        {
            "mesh" : 4,
            "name" : "PlayerColor",
            "scale" : [
                0.0005999922868795693,
                0.0005999922868795693,
                0.0005999922868795693
            ],
            "translation" : [
                0.009279102087020874,
                -0.2500070035457611,
                0.005526125431060791
            ]
        },
        {
            "children" : [
                0,
                1,
                2,
                3,
                4
            ],
            "name" : "Worker",
            "rotation" : [
                0,
                -0.7071068286895752,
                0,
                0.7071068286895752
            ],
            "translation" : [
                0,
                0.25,
                0
            ]
        }
    ],
    "materials" : [
        {
            "doubleSided" : true,
            "name" : "Material",
            "pbrMetallicRoughness" : {
                "baseColorFactor" : [
                    0.800000011920929,
                    0.800000011920929,
                    0.800000011920929,
                    1
                ],
                "metallicFactor" : 0
            }
        }
    ],
    "meshes" : [
        {
            "name" : "Worker V1.002",
            "primitives" : [
                {
                    "attributes" : {
                        "POSITION" : 0,
                        "NORMAL" : 1,
                        "COLOR_0" : 2
                    },
                    "indices" : 3,
                    "material" : 0
                }
            ]
        },
        {
            "name" : "Worker V1.003",
            "primitives" : [
                {
                    "attributes" : {
                        "POSITION" : 4,
                        "NORMAL" : 5,
                        "COLOR_0" : 6
                    },
                    "indices" : 7,
                    "material" : 0
                }
            ]
        },
        {
            "name" : "Worker V1.004",
            "primitives" : [
                {
                    "attributes" : {
                        "POSITION" : 8,
                        "NORMAL" : 9,
                        "COLOR_0" : 10
                    },
                    "indices" : 11,
                    "material" : 0
                }
            ]
        },
        {
            "name" : "Worker V1.001",
            "primitives" : [
                {
                    "attributes" : {
                        "POSITION" : 12,
                        "NORMAL" : 13,
                        "COLOR_0" : 14
                    },
                    "indices" : 15,
                    "material" : 0
                }
            ]
        },
        {
            "name" : "Worker V1",
            "primitives" : [
                {
                    "attributes" : {
                        "POSITION" : 16,
                        "NORMAL" : 17,
                        "COLOR_0" : 18
                    },
                    "indices" : 19,
                    "material" : 0
                }
            ]
        }
    ],
    "accessors" : [
        {
            "bufferView" : 0,
            "componentType" : 5126,
            "count" : 150,
            "max" : [
                440.717529296875,
                200.00656127929688,
                294.4770202636719
            ],
            "min" : [
                -9.282470703125,
                50.00655746459961,
                -305.5229797363281
            ],
            "type" : "VEC3"
        },
        {
            "bufferView" : 1,
            "componentType" : 5126,
            "count" : 150,
            "type" : "VEC3"
        },
        {
            "bufferView" : 2,
            "componentType" : 5123,
            "count" : 150,
            "normalized" : true,
            "type" : "VEC4"
        },
        {
            "bufferView" : 3,
            "componentType" : 5123,
            "count" : 243,
            "type" : "SCALAR"
        },
        {
            "bufferView" : 4,
            "componentType" : 5126,
            "count" : 74,
            "max" : [
                440.717529296875,
                470.0065612792969,
                69.47702026367188
            ],
            "min" : [
                240.717529296875,
                320.0065612792969,
                -80.52297973632812
            ],
            "type" : "VEC3"
        },
        {
            "bufferView" : 5,
            "componentType" : 5126,
            "count" : 74,
            "type" : "VEC3"
        },
        {
            "bufferView" : 6,
            "componentType" : 5123,
            "count" : 74,
            "normalized" : true,
            "type" : "VEC4"
        },
        {
            "bufferView" : 7,
            "componentType" : 5123,
            "count" : 120,
            "type" : "SCALAR"
        },
        {
            "bufferView" : 8,
            "componentType" : 5126,
            "count" : 68,
            "max" : [
                240.717529296875,
                520.0065307617188,
                244.47702026367188
            ],
            "min" : [
                -259.282470703125,
                270.0065612792969,
                -255.52297973632812
            ],
            "type" : "VEC3"
        },
        {
            "bufferView" : 9,
            "componentType" : 5126,
            "count" : 68,
            "type" : "VEC3"
        },
        {
            "bufferView" : 10,
            "componentType" : 5123,
            "count" : 68,
            "normalized" : true,
            "type" : "VEC4"
        },
        {
            "bufferView" : 11,
            "componentType" : 5123,
            "count" : 84,
            "type" : "SCALAR"
        },
        {
            "bufferView" : 12,
            "componentType" : 5126,
            "count" : 28,
            "max" : [
                240.717529296875,
                250.00656127929688,
                244.47702026367188
            ],
            "min" : [
                -259.282470703125,
                0.006556594744324684,
                -255.52297973632812
            ],
            "type" : "VEC3"
        },
        {
            "bufferView" : 13,
            "componentType" : 5126,
            "count" : 28,
            "type" : "VEC3"
        },
        {
            "bufferView" : 14,
            "componentType" : 5123,
            "count" : 28,
            "normalized" : true,
            "type" : "VEC4"
        },
        {
            "bufferView" : 15,
            "componentType" : 5123,
            "count" : 36,
            "type" : "SCALAR"
        },
        {
            "bufferView" : 16,
            "componentType" : 5126,
            "count" : 167,
            "max" : [
                220.717529296875,
                540.0065307617188,
                264.4770202636719
            ],
            "min" : [
                -239.282470703125,
                250.00656127929688,
                -275.5229797363281
            ],
            "type" : "VEC3"
        },
        {
            "bufferView" : 17,
            "componentType" : 5126,
            "count" : 167,
            "type" : "VEC3"
        },
        {
            "bufferView" : 18,
            "componentType" : 5123,
            "count" : 167,
            "normalized" : true,
            "type" : "VEC4"
        },
        {
            "bufferView" : 19,
            "componentType" : 5123,
            "count" : 216,
            "type" : "SCALAR"
        }
    ],
    "bufferViews" : [
        {
            "buffer" : 0,
            "byteLength" : 1800,
            "byteOffset" : 0
        },
        {
            "buffer" : 0,
            "byteLength" : 1800,
            "byteOffset" : 1800
        },
        {
            "buffer" : 0,
            "byteLength" : 1200,
            "byteOffset" : 3600
        },
        {
            "buffer" : 0,
            "byteLength" : 486,
            "byteOffset" : 4800
        },
        {
            "buffer" : 0,
            "byteLength" : 888,
            "byteOffset" : 5288
        },
        {
            "buffer" : 0,
            "byteLength" : 888,
            "byteOffset" : 6176
        },
        {
            "buffer" : 0,
            "byteLength" : 592,
            "byteOffset" : 7064
        },
        {
            "buffer" : 0,
            "byteLength" : 240,
            "byteOffset" : 7656
        },
        {
            "buffer" : 0,
            "byteLength" : 816,
            "byteOffset" : 7896
        },
        {
            "buffer" : 0,
            "byteLength" : 816,
            "byteOffset" : 8712
        },
        {
            "buffer" : 0,
            "byteLength" : 544,
            "byteOffset" : 9528
        },
        {
            "buffer" : 0,
            "byteLength" : 168,
            "byteOffset" : 10072
        },
        {
            "buffer" : 0,
            "byteLength" : 336,
            "byteOffset" : 10240
        },
        {
            "buffer" : 0,
            "byteLength" : 336,
            "byteOffset" : 10576
        },
        {
            "buffer" : 0,
            "byteLength" : 224,
            "byteOffset" : 10912
        },
        {
            "buffer" : 0,
            "byteLength" : 72,
            "byteOffset" : 11136
        },
        {
            "buffer" : 0,
            "byteLength" : 2004,
            "byteOffset" : 11208
        },
        {
            "buffer" : 0,
            "byteLength" : 2004,
            "byteOffset" : 13212
        },
        {
            "buffer" : 0,
            "byteLength" : 1336,
            "byteOffset" : 15216
        },
        {
            "buffer" : 0,
            "byteLength" : 432,
            "byteOffset" : 16552
        }
    ],
    "buffers" : [
        {
            "byteLength" : 16984,
            "uri" : "Worker_v2.bin"
        }
    ]
}
