{
    "asset" : {
        "generator" : "Khronos glTF Blender I/O v1.5.17",
        "version" : "2.0"
    },
    "scene" : 0,
    "scenes" : [
        {
            "name" : "Scene",
            "nodes" : [
                2
            ]
        }
    ],
    "nodes" : [
        {
            "mesh" : 0,
            "name" : "DimGray",
            "rotation" : [
                0,
                1,
                0,
                7.549790126404332e-08
            ],
            "scale" : [
                0.0009999871253967285,
                0.0009999871253967285,
                0.0009999871253967285
            ]
        },
        {
            "mesh" : 1,
            "name" : "PlayerColor",
            "rotation" : [
                0,
                1,
                0,
                7.549790126404332e-08
            ],
            "scale" : [
                0.0009999871253967285,
                0.0009999871253967285,
                0.0009999871253967285
            ]
        },
        {
            "children" : [
                0,
                1
            ],
            "name" : "Base"
        }
    ],
    "materials" : [
        {
            "doubleSided" : true,
            "name" : "Material",
            "pbrMetallicRoughness" : {
                "baseColorFactor" : [
                    0.800000011920929,
                    0.800000011920929,
                    0.800000011920929,
                    1
                ],
                "metallicFactor" : 0
            }
        }
    ],
    "meshes" : [
        {
            "name" : "Base (1).002",
            "primitives" : [
                {
                    "attributes" : {
                        "POSITION" : 0,
                        "NORMAL" : 1,
                        "COLOR_0" : 2
                    },
                    "indices" : 3,
                    "material" : 0
                }
            ]
        },
        {
            "name" : "Base (1).001",
            "primitives" : [
                {
                    "attributes" : {
                        "POSITION" : 4,
                        "NORMAL" : 5,
                        "COLOR_0" : 6
                    },
                    "indices" : 7,
                    "material" : 0
                }
            ]
        }
    ],
    "accessors" : [
        {
            "bufferView" : 0,
            "componentType" : 5126,
            "count" : 2313,
            "max" : [
                3000,
                1649.9998779296875,
                0
            ],
            "min" : [
                0,
                -20,
                -3000
            ],
            "type" : "VEC3"
        },
        {
            "bufferView" : 1,
            "componentType" : 5126,
            "count" : 2313,
            "type" : "VEC3"
        },
        {
            "bufferView" : 2,
            "componentType" : 5123,
            "count" : 2313,
            "normalized" : true,
            "type" : "VEC4"
        },
        {
            "bufferView" : 3,
            "componentType" : 5123,
            "count" : 2991,
            "type" : "SCALAR"
        },
        {
            "bufferView" : 4,
            "componentType" : 5126,
            "count" : 646,
            "max" : [
                2929.999755859375,
                1389.9998779296875,
                -69.99999237060547
            ],
            "min" : [
                69.99999237060547,
                20,
                -2935.470458984375
            ],
            "type" : "VEC3"
        },
        {
            "bufferView" : 5,
            "componentType" : 5126,
            "count" : 646,
            "type" : "VEC3"
        },
        {
            "bufferView" : 6,
            "componentType" : 5123,
            "count" : 646,
            "normalized" : true,
            "type" : "VEC4"
        },
        {
            "bufferView" : 7,
            "componentType" : 5123,
            "count" : 714,
            "type" : "SCALAR"
        }
    ],
    "bufferViews" : [
        {
            "buffer" : 0,
            "byteLength" : 27756,
            "byteOffset" : 0
        },
        {
            "buffer" : 0,
            "byteLength" : 27756,
            "byteOffset" : 27756
        },
        {
            "buffer" : 0,
            "byteLength" : 18504,
            "byteOffset" : 55512
        },
        {
            "buffer" : 0,
            "byteLength" : 5982,
            "byteOffset" : 74016
        },
        {
            "buffer" : 0,
            "byteLength" : 7752,
            "byteOffset" : 80000
        },
        {
            "buffer" : 0,
            "byteLength" : 7752,
            "byteOffset" : 87752
        },
        {
            "buffer" : 0,
            "byteLength" : 5168,
            "byteOffset" : 95504
        },
        {
            "buffer" : 0,
            "byteLength" : 1428,
            "byteOffset" : 100672
        }
    ],
    "buffers" : [
        {
            "byteLength" : 102100,
            "uri" : "Base_v3.bin"
        }
    ]
}
