{
    "asset" : {
        "generator" : "Khronos glTF Blender I/O v1.5.17",
        "version" : "2.0"
    },
    "scene" : 0,
    "scenes" : [
        {
            "name" : "Scene",
            "nodes" : [
                7
            ]
        }
    ],
    "nodes" : [
        {
            "mesh" : 0,
            "name" : "DarkGrayColor"
        },
        {
            "mesh" : 1,
            "name" : "DarkSlateGrayColor"
        },
        {
            "mesh" : 2,
            "name" : "DimGrayColor"
        },
        {
            "mesh" : 3,
            "name" : "BlackColor"
        },
        {
            "mesh" : 4,
            "name" : "PlayerColor"
        },
        {
            "mesh" : 5,
            "name" : "SilverColor"
        },
        {
            "mesh" : 6,
            "name" : "WhiteColor"
        },
        {
            "children" : [
                0,
                1,
                2,
                3,
                4,
                5,
                6
            ],
            "name" : "Base",
            "scale" : [
                0.06999999284744263,
                0.06999999284744263,
                0.06999999284744263
            ]
        }
    ],
    "materials" : [
        {
            "doubleSided" : true,
            "name" : "Material.001",
            "pbrMetallicRoughness" : {
                "baseColorFactor" : [
                    0.800000011920929,
                    0.800000011920929,
                    0.800000011920929,
                    1
                ],
                "metallicFactor" : 0
            }
        }
    ],
    "meshes" : [
        {
            "name" : "GourmetFactory_Parts.001",
            "primitives" : [
                {
                    "attributes" : {
                        "POSITION" : 0,
                        "NORMAL" : 1,
                        "TEXCOORD_0" : 2,
                        "COLOR_0" : 3
                    },
                    "indices" : 4,
                    "material" : 0
                }
            ]
        },
        {
            "name" : "GourmetFactory_Parts.005",
            "primitives" : [
                {
                    "attributes" : {
                        "POSITION" : 5,
                        "NORMAL" : 6,
                        "TEXCOORD_0" : 7,
                        "COLOR_0" : 8
                    },
                    "indices" : 9,
                    "material" : 0
                }
            ]
        },
        {
            "name" : "GourmetFactory_BigBody.003",
            "primitives" : [
                {
                    "attributes" : {
                        "POSITION" : 10,
                        "NORMAL" : 11,
                        "TEXCOORD_0" : 12,
                        "COLOR_0" : 13
                    },
                    "indices" : 14,
                    "material" : 0
                }
            ]
        },
        {
            "name" : "GourmetFactory_BigBody.004",
            "primitives" : [
                {
                    "attributes" : {
                        "POSITION" : 15,
                        "NORMAL" : 16,
                        "TEXCOORD_0" : 17,
                        "COLOR_0" : 18
                    },
                    "indices" : 19,
                    "material" : 0
                }
            ]
        },
        {
            "name" : "GourmetFactory_Parts.002",
            "primitives" : [
                {
                    "attributes" : {
                        "POSITION" : 20,
                        "NORMAL" : 21,
                        "TEXCOORD_0" : 22,
                        "COLOR_0" : 23
                    },
                    "indices" : 24,
                    "material" : 0
                }
            ]
        },
        {
            "name" : "GourmetFactory_Body.004",
            "primitives" : [
                {
                    "attributes" : {
                        "POSITION" : 25,
                        "NORMAL" : 26,
                        "TEXCOORD_0" : 27,
                        "COLOR_0" : 28
                    },
                    "indices" : 29,
                    "material" : 0
                }
            ]
        },
        {
            "name" : "GourmetFactory_Body.002",
            "primitives" : [
                {
                    "attributes" : {
                        "POSITION" : 30,
                        "NORMAL" : 31,
                        "TEXCOORD_0" : 32,
                        "COLOR_0" : 33
                    },
                    "indices" : 34,
                    "material" : 0
                }
            ]
        }
    ],
    "accessors" : [
        {
            "bufferView" : 0,
            "componentType" : 5126,
            "count" : 192,
            "max" : [
                14.729401588439941,
                7.25,
                0.7294019460678101
            ],
            "min" : [
                -14.729401588439941,
                6.25,
                -6.7294020652771
            ],
            "type" : "VEC3"
        },
        {
            "bufferView" : 1,
            "componentType" : 5126,
            "count" : 192,
            "type" : "VEC3"
        },
        {
            "bufferView" : 2,
            "componentType" : 5126,
            "count" : 192,
            "type" : "VEC2"
        },
        {
            "bufferView" : 3,
            "componentType" : 5123,
            "count" : 192,
            "normalized" : true,
            "type" : "VEC4"
        },
        {
            "bufferView" : 4,
            "componentType" : 5123,
            "count" : 288,
            "type" : "SCALAR"
        },
        {
            "bufferView" : 5,
            "componentType" : 5126,
            "count" : 432,
            "max" : [
                15,
                3.25,
                1
            ],
            "min" : [
                -15,
                0.009999999776482582,
                -7
            ],
            "type" : "VEC3"
        },
        {
            "bufferView" : 6,
            "componentType" : 5126,
            "count" : 432,
            "type" : "VEC3"
        },
        {
            "bufferView" : 7,
            "componentType" : 5126,
            "count" : 432,
            "type" : "VEC2"
        },
        {
            "bufferView" : 8,
            "componentType" : 5123,
            "count" : 432,
            "normalized" : true,
            "type" : "VEC4"
        },
        {
            "bufferView" : 9,
            "componentType" : 5123,
            "count" : 684,
            "type" : "SCALAR"
        },
        {
            "bufferView" : 10,
            "componentType" : 5126,
            "count" : 658,
            "max" : [
                14.729400634765625,
                25,
                7
            ],
            "min" : [
                -14.729400634765625,
                1,
                -18.33798599243164
            ],
            "type" : "VEC3"
        },
        {
            "bufferView" : 11,
            "componentType" : 5126,
            "count" : 658,
            "type" : "VEC3"
        },
        {
            "bufferView" : 12,
            "componentType" : 5126,
            "count" : 658,
            "type" : "VEC2"
        },
        {
            "bufferView" : 13,
            "componentType" : 5123,
            "count" : 658,
            "normalized" : true,
            "type" : "VEC4"
        },
        {
            "bufferView" : 14,
            "componentType" : 5123,
            "count" : 1026,
            "type" : "SCALAR"
        },
        {
            "bufferView" : 15,
            "componentType" : 5126,
            "count" : 2768,
            "max" : [
                16.099998474121094,
                27.472745895385742,
                15.499999046325684
            ],
            "min" : [
                -16.099998474121094,
                0,
                -18.4999942779541
            ],
            "type" : "VEC3"
        },
        {
            "bufferView" : 16,
            "componentType" : 5126,
            "count" : 2768,
            "type" : "VEC3"
        },
        {
            "bufferView" : 17,
            "componentType" : 5126,
            "count" : 2768,
            "type" : "VEC2"
        },
        {
            "bufferView" : 18,
            "componentType" : 5123,
            "count" : 2768,
            "normalized" : true,
            "type" : "VEC4"
        },
        {
            "bufferView" : 19,
            "componentType" : 5123,
            "count" : 4704,
            "type" : "SCALAR"
        },
        {
            "bufferView" : 20,
            "componentType" : 5126,
            "count" : 4927,
            "max" : [
                17.999998092651367,
                26.196958541870117,
                17.999998092651367
            ],
            "min" : [
                -17.999998092651367,
                0,
                -17.999998092651367
            ],
            "type" : "VEC3"
        },
        {
            "bufferView" : 21,
            "componentType" : 5126,
            "count" : 4927,
            "type" : "VEC3"
        },
        {
            "bufferView" : 22,
            "componentType" : 5126,
            "count" : 4927,
            "type" : "VEC2"
        },
        {
            "bufferView" : 23,
            "componentType" : 5123,
            "count" : 4927,
            "normalized" : true,
            "type" : "VEC4"
        },
        {
            "bufferView" : 24,
            "componentType" : 5123,
            "count" : 7932,
            "type" : "SCALAR"
        },
        {
            "bufferView" : 25,
            "componentType" : 5126,
            "count" : 5073,
            "max" : [
                16,
                27.69999885559082,
                15
            ],
            "min" : [
                -16,
                0.009999998845160007,
                -18.499998092651367
            ],
            "type" : "VEC3"
        },
        {
            "bufferView" : 26,
            "componentType" : 5126,
            "count" : 5073,
            "type" : "VEC3"
        },
        {
            "bufferView" : 27,
            "componentType" : 5126,
            "count" : 5073,
            "type" : "VEC2"
        },
        {
            "bufferView" : 28,
            "componentType" : 5123,
            "count" : 5073,
            "normalized" : true,
            "type" : "VEC4"
        },
        {
            "bufferView" : 29,
            "componentType" : 5123,
            "count" : 11148,
            "type" : "SCALAR"
        },
        {
            "bufferView" : 30,
            "componentType" : 5126,
            "count" : 510,
            "max" : [
                16,
                20.849998474121094,
                15
            ],
            "min" : [
                -16,
                1,
                -18.4234619140625
            ],
            "type" : "VEC3"
        },
        {
            "bufferView" : 31,
            "componentType" : 5126,
            "count" : 510,
            "type" : "VEC3"
        },
        {
            "bufferView" : 32,
            "componentType" : 5126,
            "count" : 510,
            "type" : "VEC2"
        },
        {
            "bufferView" : 33,
            "componentType" : 5123,
            "count" : 510,
            "normalized" : true,
            "type" : "VEC4"
        },
        {
            "bufferView" : 34,
            "componentType" : 5123,
            "count" : 768,
            "type" : "SCALAR"
        }
    ],
    "bufferViews" : [
        {
            "buffer" : 0,
            "byteLength" : 2304,
            "byteOffset" : 0
        },
        {
            "buffer" : 0,
            "byteLength" : 2304,
            "byteOffset" : 2304
        },
        {
            "buffer" : 0,
            "byteLength" : 1536,
            "byteOffset" : 4608
        },
        {
            "buffer" : 0,
            "byteLength" : 1536,
            "byteOffset" : 6144
        },
        {
            "buffer" : 0,
            "byteLength" : 576,
            "byteOffset" : 7680
        },
        {
            "buffer" : 0,
            "byteLength" : 5184,
            "byteOffset" : 8256
        },
        {
            "buffer" : 0,
            "byteLength" : 5184,
            "byteOffset" : 13440
        },
        {
            "buffer" : 0,
            "byteLength" : 3456,
            "byteOffset" : 18624
        },
        {
            "buffer" : 0,
            "byteLength" : 3456,
            "byteOffset" : 22080
        },
        {
            "buffer" : 0,
            "byteLength" : 1368,
            "byteOffset" : 25536
        },
        {
            "buffer" : 0,
            "byteLength" : 7896,
            "byteOffset" : 26904
        },
        {
            "buffer" : 0,
            "byteLength" : 7896,
            "byteOffset" : 34800
        },
        {
            "buffer" : 0,
            "byteLength" : 5264,
            "byteOffset" : 42696
        },
        {
            "buffer" : 0,
            "byteLength" : 5264,
            "byteOffset" : 47960
        },
        {
            "buffer" : 0,
            "byteLength" : 2052,
            "byteOffset" : 53224
        },
        {
            "buffer" : 0,
            "byteLength" : 33216,
            "byteOffset" : 55276
        },
        {
            "buffer" : 0,
            "byteLength" : 33216,
            "byteOffset" : 88492
        },
        {
            "buffer" : 0,
            "byteLength" : 22144,
            "byteOffset" : 121708
        },
        {
            "buffer" : 0,
            "byteLength" : 22144,
            "byteOffset" : 143852
        },
        {
            "buffer" : 0,
            "byteLength" : 9408,
            "byteOffset" : 165996
        },
        {
            "buffer" : 0,
            "byteLength" : 59124,
            "byteOffset" : 175404
        },
        {
            "buffer" : 0,
            "byteLength" : 59124,
            "byteOffset" : 234528
        },
        {
            "buffer" : 0,
            "byteLength" : 39416,
            "byteOffset" : 293652
        },
        {
            "buffer" : 0,
            "byteLength" : 39416,
            "byteOffset" : 333068
        },
        {
            "buffer" : 0,
            "byteLength" : 15864,
            "byteOffset" : 372484
        },
        {
            "buffer" : 0,
            "byteLength" : 60876,
            "byteOffset" : 388348
        },
        {
            "buffer" : 0,
            "byteLength" : 60876,
            "byteOffset" : 449224
        },
        {
            "buffer" : 0,
            "byteLength" : 40584,
            "byteOffset" : 510100
        },
        {
            "buffer" : 0,
            "byteLength" : 40584,
            "byteOffset" : 550684
        },
        {
            "buffer" : 0,
            "byteLength" : 22296,
            "byteOffset" : 591268
        },
        {
            "buffer" : 0,
            "byteLength" : 6120,
            "byteOffset" : 613564
        },
        {
            "buffer" : 0,
            "byteLength" : 6120,
            "byteOffset" : 619684
        },
        {
            "buffer" : 0,
            "byteLength" : 4080,
            "byteOffset" : 625804
        },
        {
            "buffer" : 0,
            "byteLength" : 4080,
            "byteOffset" : 629884
        },
        {
            "buffer" : 0,
            "byteLength" : 1536,
            "byteOffset" : 633964
        }
    ],
    "buffers" : [
        {
            "byteLength" : 635500,
            "uri" : "Base_v1.bin"
        }
    ]
}
