{
    "asset" : {
        "generator" : "Khronos glTF Blender I/O v1.5.17",
        "version" : "2.0"
    },
    "scene" : 0,
    "scenes" : [
        {
            "name" : "Scene",
            "nodes" : [
                2
            ]
        }
    ],
    "nodes" : [
        {
            "mesh" : 0,
            "name" : "PlayerColor",
            "rotation" : [
                0,
                0.3826834559440613,
                0,
                0.9238795042037964
            ]
        },
        {
            "mesh" : 1,
            "name" : "WhiteColor",
            "rotation" : [
                0.23911769688129425,
                0.36964383721351624,
                -0.09904579818248749,
                0.89239901304245
            ],
            "translation" : [
                21.21320343017578,
                6.999999523162842,
                21.213205337524414
            ]
        },
        {
            "children" : [
                0,
                1
            ],
            "name" : "EnergyFarm",
            "scale" : [
                0.013246839866042137,
                0.013246839866042137,
                0.013246839866042137
            ]
        }
    ],
    "materials" : [
        {
            "doubleSided" : true,
            "name" : "Material.001",
            "pbrMetallicRoughness" : {
                "baseColorFactor" : [
                    0.800000011920929,
                    0.800000011920929,
                    0.800000011920929,
                    1
                ],
                "metallicFactor" : 0
            }
        }
    ],
    "meshes" : [
        {
            "name" : "SolarPanelBigComplex_Foundation.001",
            "primitives" : [
                {
                    "attributes" : {
                        "POSITION" : 0,
                        "NORMAL" : 1,
                        "TEXCOORD_0" : 2,
                        "COLOR_0" : 3
                    },
                    "indices" : 4,
                    "material" : 0
                }
            ]
        },
        {
            "name" : "SolarPanel_Panel.012",
            "primitives" : [
                {
                    "attributes" : {
                        "POSITION" : 5,
                        "NORMAL" : 6,
                        "TEXCOORD_0" : 7,
                        "COLOR_0" : 8
                    },
                    "indices" : 9,
                    "material" : 0
                }
            ]
        }
    ],
    "accessors" : [
        {
            "bufferView" : 0,
            "componentType" : 5126,
            "count" : 1342,
            "max" : [
                32.34314727783203,
                11.166027069091797,
                36.362186431884766
            ],
            "min" : [
                -32.34314727783203,
                0,
                -35.862186431884766
            ],
            "type" : "VEC3"
        },
        {
            "bufferView" : 1,
            "componentType" : 5126,
            "count" : 1342,
            "type" : "VEC3"
        },
        {
            "bufferView" : 2,
            "componentType" : 5126,
            "count" : 1342,
            "type" : "VEC2"
        },
        {
            "bufferView" : 3,
            "componentType" : 5123,
            "count" : 1342,
            "normalized" : true,
            "type" : "VEC4"
        },
        {
            "bufferView" : 4,
            "componentType" : 5123,
            "count" : 3324,
            "type" : "SCALAR"
        },
        {
            "bufferView" : 5,
            "componentType" : 5126,
            "count" : 15912,
            "max" : [
                27.000009536743164,
                0.9999980926513672,
                7.000003814697266
            ],
            "min" : [
                -27.0000057220459,
                -37.19038772583008,
                -58.96153259277344
            ],
            "type" : "VEC3"
        },
        {
            "bufferView" : 6,
            "componentType" : 5126,
            "count" : 15912,
            "type" : "VEC3"
        },
        {
            "bufferView" : 7,
            "componentType" : 5126,
            "count" : 15912,
            "type" : "VEC2"
        },
        {
            "bufferView" : 8,
            "componentType" : 5123,
            "count" : 15912,
            "normalized" : true,
            "type" : "VEC4"
        },
        {
            "bufferView" : 9,
            "componentType" : 5123,
            "count" : 38610,
            "type" : "SCALAR"
        }
    ],
    "bufferViews" : [
        {
            "buffer" : 0,
            "byteLength" : 16104,
            "byteOffset" : 0
        },
        {
            "buffer" : 0,
            "byteLength" : 16104,
            "byteOffset" : 16104
        },
        {
            "buffer" : 0,
            "byteLength" : 10736,
            "byteOffset" : 32208
        },
        {
            "buffer" : 0,
            "byteLength" : 10736,
            "byteOffset" : 42944
        },
        {
            "buffer" : 0,
            "byteLength" : 6648,
            "byteOffset" : 53680
        },
        {
            "buffer" : 0,
            "byteLength" : 190944,
            "byteOffset" : 60328
        },
        {
            "buffer" : 0,
            "byteLength" : 190944,
            "byteOffset" : 251272
        },
        {
            "buffer" : 0,
            "byteLength" : 127296,
            "byteOffset" : 442216
        },
        {
            "buffer" : 0,
            "byteLength" : 127296,
            "byteOffset" : 569512
        },
        {
            "buffer" : 0,
            "byteLength" : 77220,
            "byteOffset" : 696808
        }
    ],
    "buffers" : [
        {
            "byteLength" : 774028,
            "uri" : "EnergyFarm_v2.bin"
        }
    ]
}
