{
    "asset" : {
        "generator" : "Khronos glTF Blender I/O v1.5.17",
        "version" : "2.0"
    },
    "scene" : 0,
    "scenes" : [
        {
            "name" : "Scene",
            "nodes" : [
                3
            ]
        }
    ],
    "nodes" : [
        {
            "mesh" : 0,
            "name" : "GrayFaces",
            "rotation" : [
                0.23911795020103455,
                0.099045529961586,
                0.369643896818161,
                0.89239901304245
            ],
            "translation" : [
                -14.936827659606934,
                2.2089104652404785,
                36.22677993774414
            ]
        },
        {
            "mesh" : 1,
            "name" : "BlackFaces",
            "rotation" : [
                0.23911795020103455,
                0.099045529961586,
                0.369643896818161,
                0.89239901304245
            ],
            "translation" : [
                -2.208911657333374,
                14.936830520629883,
                36.226783752441406
            ]
        },
        {
            "mesh" : 2,
            "name" : "PlayerColor",
            "rotation" : [
                -0.4619399905204773,
                -0.19134148955345154,
                0.3314136862754822,
                0.8001030683517456
            ],
            "translation" : [
                0,
                0,
                23.45355987548828
            ]
        },
        {
            "children" : [
                0,
                1,
                2
            ],
            "name" : "EnergyFarm",
            "rotation" : [
                -0.7071068286895752,
                0,
                0,
                0.7071068286895752
            ],
            "scale" : [
                0.01846092753112316,
                0.01846090331673622,
                0.01846090331673622
            ],
            "translation" : [
                0.0017950236797332764,
                -1.0355259291827679e-05,
                -0.0004394352436065674
            ]
        }
    ],
    "materials" : [
        {
            "doubleSided" : true,
            "name" : "Material.001",
            "pbrMetallicRoughness" : {
                "baseColorFactor" : [
                    0.800000011920929,
                    0.800000011920929,
                    0.800000011920929,
                    1
                ],
                "metallicFactor" : 0
            }
        }
    ],
    "meshes" : [
        {
            "name" : "SolarPanel_Panel.001_Placeable_0.003",
            "primitives" : [
                {
                    "attributes" : {
                        "POSITION" : 0,
                        "NORMAL" : 1,
                        "TEXCOORD_0" : 2,
                        "COLOR_0" : 3
                    },
                    "indices" : 4,
                    "material" : 0
                }
            ]
        },
        {
            "name" : "SolarPanel_Panel.004_Placeable_0.001",
            "primitives" : [
                {
                    "attributes" : {
                        "POSITION" : 5,
                        "NORMAL" : 6,
                        "TEXCOORD_0" : 7,
                        "COLOR_0" : 8
                    },
                    "indices" : 9,
                    "material" : 0
                }
            ]
        },
        {
            "name" : "SolarPanelTowerComplex_UpperNeck_Placeable_0.002",
            "primitives" : [
                {
                    "attributes" : {
                        "POSITION" : 10,
                        "NORMAL" : 11,
                        "TEXCOORD_0" : 12,
                        "COLOR_0" : 13
                    },
                    "indices" : 14,
                    "material" : 0
                }
            ]
        }
    ],
    "accessors" : [
        {
            "bufferView" : 0,
            "componentType" : 5126,
            "count" : 14554,
            "max" : [
                26.999996185302734,
                7.000000476837158,
                1.000016689300537
            ],
            "min" : [
                -9.000000953674316,
                -36.055145263671875,
                -29.188018798828125
            ],
            "type" : "VEC3"
        },
        {
            "bufferView" : 1,
            "componentType" : 5126,
            "count" : 14554,
            "type" : "VEC3"
        },
        {
            "bufferView" : 2,
            "componentType" : 5126,
            "count" : 14554,
            "type" : "VEC2"
        },
        {
            "bufferView" : 3,
            "componentType" : 5123,
            "count" : 14554,
            "normalized" : true,
            "type" : "VEC4"
        },
        {
            "bufferView" : 4,
            "componentType" : 5123,
            "count" : 18087,
            "type" : "SCALAR"
        },
        {
            "bufferView" : 5,
            "componentType" : 5126,
            "count" : 2303,
            "max" : [
                7.900003433227539,
                5.900015830993652,
                1.00001859664917
            ],
            "min" : [
                -25.89999771118164,
                -19.900001525878906,
                1
            ],
            "type" : "VEC3"
        },
        {
            "bufferView" : 6,
            "componentType" : 5126,
            "count" : 2303,
            "type" : "VEC3"
        },
        {
            "bufferView" : 7,
            "componentType" : 5126,
            "count" : 2303,
            "type" : "VEC2"
        },
        {
            "bufferView" : 8,
            "componentType" : 5123,
            "count" : 2303,
            "normalized" : true,
            "type" : "VEC4"
        },
        {
            "bufferView" : 9,
            "componentType" : 5123,
            "count" : 3456,
            "type" : "SCALAR"
        },
        {
            "bufferView" : 10,
            "componentType" : 5126,
            "count" : 5066,
            "max" : [
                18,
                25.11732292175293,
                23.886194229125977
            ],
            "min" : [
                -18.000011444091797,
                -6.000019073486328,
                -20.05091667175293
            ],
            "type" : "VEC3"
        },
        {
            "bufferView" : 11,
            "componentType" : 5126,
            "count" : 5066,
            "type" : "VEC3"
        },
        {
            "bufferView" : 12,
            "componentType" : 5126,
            "count" : 5066,
            "type" : "VEC2"
        },
        {
            "bufferView" : 13,
            "componentType" : 5123,
            "count" : 5066,
            "normalized" : true,
            "type" : "VEC4"
        },
        {
            "bufferView" : 14,
            "componentType" : 5123,
            "count" : 5283,
            "type" : "SCALAR"
        }
    ],
    "bufferViews" : [
        {
            "buffer" : 0,
            "byteLength" : 174648,
            "byteOffset" : 0
        },
        {
            "buffer" : 0,
            "byteLength" : 174648,
            "byteOffset" : 174648
        },
        {
            "buffer" : 0,
            "byteLength" : 116432,
            "byteOffset" : 349296
        },
        {
            "buffer" : 0,
            "byteLength" : 116432,
            "byteOffset" : 465728
        },
        {
            "buffer" : 0,
            "byteLength" : 36174,
            "byteOffset" : 582160
        },
        {
            "buffer" : 0,
            "byteLength" : 27636,
            "byteOffset" : 618336
        },
        {
            "buffer" : 0,
            "byteLength" : 27636,
            "byteOffset" : 645972
        },
        {
            "buffer" : 0,
            "byteLength" : 18424,
            "byteOffset" : 673608
        },
        {
            "buffer" : 0,
            "byteLength" : 18424,
            "byteOffset" : 692032
        },
        {
            "buffer" : 0,
            "byteLength" : 6912,
            "byteOffset" : 710456
        },
        {
            "buffer" : 0,
            "byteLength" : 60792,
            "byteOffset" : 717368
        },
        {
            "buffer" : 0,
            "byteLength" : 60792,
            "byteOffset" : 778160
        },
        {
            "buffer" : 0,
            "byteLength" : 40528,
            "byteOffset" : 838952
        },
        {
            "buffer" : 0,
            "byteLength" : 40528,
            "byteOffset" : 879480
        },
        {
            "buffer" : 0,
            "byteLength" : 10566,
            "byteOffset" : 920008
        }
    ],
    "buffers" : [
        {
            "byteLength" : 930576,
            "uri" : "EnergyFarm_v1.bin"
        }
    ]
}
